<?xml version="1.0" encoding="utf-8"?>
<svg display="none" height="0" version="1.1" viewBox="0 0 1008 128" width="0" xmlns="http://www.w3.org/2000/svg" xmlns:xlink="http://www.w3.org/1999/xlink">
  <defs>
    <symbol id="icon_tag_small">
      <path class="path1" d="M30.126 13.59l-13.608-13.53-0.034 0.036h-12.308l-4.176-0.096v16.572h0.156l-0.008 0.008 13.346 13.548c1.212 1.204 2.824 1.872 4.542 1.872 1.708 0 3.322-0.668 4.532-1.872l7.558-7.514c1.212-1.206 1.874-2.81 1.874-4.508 0-1.708-0.662-3.31-1.874-4.516z" fill="rgb(85, 155, 224)" opacity="1" visibility="false"/>
      <path class="path2" d="M9.2 6.4c0 1.546-1.254 2.8-2.8 2.8s-2.8-1.254-2.8-2.8c0-1.546 1.254-2.8 2.8-2.8s2.8 1.254 2.8 2.8z" fill="rgb(221, 230, 236)" opacity="1" visibility="false"/>
      <path class="path3" d="M21.49 26.882c-1.764 1.764-4.36 2.030-5.796 0.594l-7.968-7.97c-1.438-1.436-1.172-4.032 0.592-5.796l5.392-5.392c1.764-1.764 4.36-2.030 5.796-0.594l7.968 7.968c1.436 1.436 1.172 4.032-0.594 5.796l-5.39 5.394z" fill="rgb(61, 131, 178)" opacity="1" visibility="false"/>
    </symbol>
    <symbol id="icon_tag">
      <path class="path1" d="M32 28.976c0 1.67-1.354 3.024-3.024 3.024h-25.953c-1.67 0-3.024-1.354-3.024-3.024v-25.953c0-1.67 1.354-3.024 3.024-3.024h25.953c1.669 0 3.023 1.354 3.023 3.024v25.953z" fill="rgb(221, 230, 236)" opacity="1" visibility="false"/>
      <path class="path2" d="M25.431 15.256l-8.374-8.326-0.022 0.021h-7.574l-2.569-0.059v10.198h0.096l-0.005 0.005 8.213 8.337c0.746 0.741 1.738 1.152 2.795 1.152 1.052 0 2.044-0.411 2.789-1.152l4.651-4.624c0.746-0.741 1.153-1.729 1.153-2.774 0-1.051-0.408-2.038-1.153-2.779z" fill="rgb(85, 155, 224)" opacity="1" visibility="false"/>
      <path class="path3" d="M12.554 10.831c0 0.952-0.771 1.723-1.723 1.723s-1.723-0.771-1.723-1.723c0-0.952 0.771-1.723 1.723-1.723s1.723 0.771 1.723 1.723z" fill="rgb(221, 230, 236)" opacity="1" visibility="false"/>
      <path class="path4" d="M20.117 23.435c-1.086 1.086-2.683 1.249-3.567 0.365l-4.903-4.903c-0.884-0.884-0.721-2.481 0.365-3.567l3.318-3.318c1.086-1.086 2.683-1.249 3.567-0.365l4.903 4.903c0.884 0.884 0.721 2.481-0.365 3.567l-3.318 3.318z" fill="rgb(61, 131, 178)" opacity="1" visibility="false"/>
    </symbol>
    <symbol id="icon_userpic">
      <path class="path1" d="M32 16c0 8.837-7.163 16-16 16s-16-7.163-16-16c0-8.837 7.163-16 16-16s16 7.163 16 16z" fill="rgb(221, 230, 236)" opacity="1" visibility="false"/>
      <path class="path2" d="M27.432 17.749c0 0.695-0.616 1.258-1.376 1.258h-7.782c-0.76 0-1.376-0.563-1.376-1.258v-4.521c0-0.695 0.616-1.258 1.376-1.258h7.782c0.76 0 1.376 0.563 1.376 1.258v4.521z" fill="rgb(255, 255, 255)" opacity="1" visibility="false"/>
      <path class="path3" d="M26.434 13.922c0 0.552-0.447 0.999-0.999 0.999s-0.999-0.447-0.999-0.999c0-0.552 0.447-0.999 0.999-0.999s0.999 0.447 0.999 0.999z" fill="rgb(252, 174, 22)" opacity="1" visibility="false"/>
      <path class="path4" d="M26.434 16.964c0 0.552-0.447 0.999-0.999 0.999s-0.999-0.447-0.999-0.999c0-0.552 0.447-0.999 0.999-0.999s0.999 0.447 0.999 0.999z" fill="rgb(252, 174, 22)" opacity="1" visibility="false"/>
      <path class="path5" d="M20.485 5.023h0.635v6.448h-0.635v-6.448z" fill="rgb(199, 207, 213)" opacity="1" visibility="false"/>
      <path class="path6" d="M16 32c3.893 0 7.462-1.392 10.235-3.704-2.038-3.903-5.947-6.55-10.449-6.55-4.405 0-8.237 2.537-10.308 6.301 2.812 2.459 6.491 3.952 10.522 3.952z" fill="rgb(85, 155, 224)" opacity="1" visibility="false"/>
      <path class="path7" d="M4.504 17.84c0 0.695 0.616 1.258 1.376 1.258h7.782c0.76 0 1.376-0.563 1.376-1.258v-4.521c0-0.695-0.616-1.258-1.376-1.258h-7.782c-0.76 0-1.376 0.563-1.376 1.258v4.521z" fill="rgb(255, 255, 255)" opacity="1" visibility="false"/>
      <path class="path8" d="M7.501 14.012c0 0.552-0.447 0.999-0.999 0.999s-0.999-0.447-0.999-0.999c0-0.552 0.447-0.999 0.999-0.999s0.999 0.447 0.999 0.999z" fill="rgb(252, 174, 22)" opacity="1" visibility="false"/>
      <path class="path9" d="M7.501 17.055c0 0.552-0.447 0.999-0.999 0.999s-0.999-0.447-0.999-0.999c0-0.552 0.447-0.999 0.999-0.999s0.999 0.447 0.999 0.999z" fill="rgb(252, 174, 22)" opacity="1" visibility="false"/>
      <path class="path10" d="M22.795 17.189c0 5.554-3.050 10.057-6.811 10.057s-6.811-4.503-6.811-10.057c0-5.554 3.050-10.057 6.811-10.057s6.811 4.503 6.811 10.057z" fill="rgb(61, 131, 178)" opacity="1" visibility="false"/>
      <path class="path11" d="M24.969 15.962c0 4.982-4.015 9.020-8.967 9.020s-8.967-4.039-8.967-9.020c0-4.982 4.015-9.020 8.967-9.020s8.967 4.039 8.967 9.020z" fill="rgb(255, 255, 255)" opacity="1" visibility="false"/>
      <path class="path12" d="M21.802 4.91c0 0.539-0.437 0.976-0.976 0.976s-0.976-0.437-0.976-0.976c0-0.539 0.437-0.976 0.976-0.976s0.976 0.437 0.976 0.976z" fill="rgb(101, 193, 120)" opacity="1" visibility="false"/>
      <path class="path13" d="M10.75 17.739c0.159 2.63 2.461 4.72 5.285 4.72 2.743 0 4.998-1.968 5.273-4.491 0.046-0.184 0.074-4.976 0.074-4.976 0-1.442-1.301-2.611-2.906-2.611h-4.858c-1.605 0-2.906 1.169-2.906 2.611z" fill="rgb(197, 204, 209)" opacity="1" visibility="false"/>
      <path class="path14" d="M16.025 19.896c-4.090 0-7.533-2.757-8.611-6.522-0.244 0.82-0.378 1.687-0.378 2.587 0 4.982 4.015 9.020 8.967 9.020s8.967-4.038 8.967-9.020c0-0.868-0.129-1.704-0.356-2.498-1.107 3.719-4.532 6.432-8.59 6.432z" fill="rgb(191, 191, 191)" opacity="0.200000002980232" visibility="false"/>
      <path class="path15" d="M16.039 19.896c-1.952 0-3.752-0.633-5.222-1.699 0.382 2.41 2.576 4.26 5.234 4.26 2.664 0 4.863-1.859 5.239-4.277-1.477 1.077-3.288 1.716-5.251 1.716z" fill="rgb(181, 191, 197)" opacity="1" visibility="false"/>
    </symbol>
    <symbol id="icon_activity_answer">
      <path class="path1" d="M32 16c0 8.837-7.163 16-16 16s-16-7.163-16-16c0-8.837 7.163-16 16-16s16 7.163 16 16z" fill="rgb(248, 171, 50)" opacity="1" visibility="false"/>
      <path class="path2" d="M16.551 7.975c-4.713 0-8.615 3.343-8.615 7.467 0 2.357 0.985 4.455 3.118 5.824v3.776l4.45-2.185c0.317 0.031 0.679 0.051 1.006 0.051 4.714 0 8.554-3.343 8.554-7.467s-3.798-7.467-8.512-7.467zM12.859 16.642c-0.761 0-1.378-0.617-1.378-1.378s0.617-1.378 1.378-1.378c0.761 0 1.378 0.617 1.378 1.378s-0.618 1.378-1.378 1.378zM16.638 16.642c-0.761 0-1.378-0.617-1.378-1.378s0.617-1.378 1.378-1.378c0.761 0 1.378 0.617 1.378 1.378s-0.618 1.378-1.378 1.378zM20.417 16.642c-0.761 0-1.378-0.617-1.378-1.378s0.617-1.378 1.378-1.378 1.378 0.617 1.378 1.378-0.618 1.378-1.378 1.378z" fill="rgb(255, 255, 255)" opacity="1" visibility="false"/>
    </symbol>
    <symbol id="icon_activity_comment">
      <path class="path1" d="M32 16c0 8.837-7.163 16-16 16s-16-7.163-16-16c0-8.837 7.163-16 16-16s16 7.163 16 16z" fill="rgb(181, 161, 221)" opacity="1" visibility="false"/>
      <path class="path2" d="M23.467 8.889h-13.867c-0.883 0-1.6 0.703-1.6 1.586v10.667c0 0.883 0.716 1.614 1.6 1.614h4.794l2.14 2.14 2.141-2.14h4.793c0.884 0 1.6-0.731 1.6-1.614v-10.667c0-0.883-0.716-1.586-1.6-1.586zM18.667 18.489h-6.4v-2.133h6.4v2.133zM20.8 14.222h-8.533v-2.133h8.533v2.133z" fill="rgb(255, 255, 255)" opacity="1" visibility="false"/>
    </symbol>
    <symbol id="icon_activity_edit">
      <path class="path1" d="M32 16c0 8.837-7.163 16-16 16s-16-7.163-16-16c0-8.837 7.163-16 16-16s16 7.163 16 16z" fill="rgb(139, 142, 253)" opacity="1" visibility="false"/>
      <path class="path2" d="M18.375 10.832l3.803 3.191-7.474 8.906-3.803-3.191 7.474-8.906z" fill="rgb(255, 255, 255)" opacity="1" visibility="false"/>
      <path class="path3" d="M21.021 7.75l3.787 3.178-2.063 2.459-3.787-3.178 2.063-2.459z" fill="rgb(255, 255, 255)" opacity="1" visibility="false"/>
      <path class="path4" d="M13.95 23.744l-4.038 0.817 0.333-4.038z" fill="rgb(255, 255, 255)" opacity="1" visibility="false"/>
    </symbol>
    <symbol id="icon_activity_like">
      <path class="path1" d="M32 16c0 8.837-7.163 16-16 16s-16-7.163-16-16c0-8.837 7.163-16 16-16s16 7.163 16 16z" fill="rgb(248, 123, 126)" opacity="1" visibility="false"/>
      <path class="path2" d="M19.754 9.511c-1.492 0-3.483 2.387-3.483 2.387s-1.99-2.387-3.483-2.387c-3.022 0-4.478 1.413-4.478 4.334 0 2.745 7.959 10.471 7.959 10.471s7.959-7.727 7.959-10.471c0.001-2.922-1.453-4.334-4.476-4.334z" fill="rgb(255, 255, 255)" opacity="1" visibility="false"/>
    </symbol>
    <symbol id="icon_activity_mention">
      <path class="path1" d="M32 16c0 8.837-7.163 16-16 16s-16-7.163-16-16c0-8.837 7.163-16 16-16s16 7.163 16 16z" fill="rgb(102, 156, 237)" opacity="1" visibility="false"/>
      <path class="path2" d="M18.713 11.74h1.315l-0.901 5.093c-0.101 0.59-0.103 1.014-0.010 1.278s0.304 0.396 0.63 0.396c0.325 0 0.644-0.076 0.958-0.225 0.314-0.15 0.595-0.382 0.846-0.695 0.251-0.313 0.454-0.707 0.61-1.184 0.156-0.476 0.236-1.040 0.236-1.692 0-0.94-0.156-1.741-0.469-2.405-0.314-0.663-0.741-1.212-1.287-1.644s-1.187-0.749-1.926-0.949c-0.739-0.201-1.535-0.301-2.386-0.301-0.977 0-1.886 0.175-2.725 0.526-0.838 0.351-1.569 0.833-2.189 1.446-0.62 0.614-1.106 1.344-1.456 2.189-0.351 0.846-0.526 1.764-0.526 2.754 0 0.977 0.147 1.854 0.442 2.63s0.723 1.438 1.287 1.982c0.563 0.546 1.262 0.965 2.095 1.26 0.833 0.293 1.788 0.441 2.866 0.441 0.364 0 0.777-0.043 1.241-0.131 0.463-0.087 0.883-0.219 1.259-0.395l0.582 1.805c-0.514 0.251-1.037 0.426-1.569 0.526-0.533 0.101-1.143 0.15-1.833 0.15-1.216 0-2.34-0.174-3.374-0.526-1.034-0.35-1.93-0.87-2.687-1.559-0.757-0.688-1.35-1.543-1.776-2.564-0.427-1.021-0.639-2.202-0.639-3.542 0-1.365 0.244-2.599 0.734-3.701 0.487-1.103 1.147-2.043 1.973-2.819s1.786-1.375 2.876-1.795c1.090-0.42 2.243-0.629 3.458-0.629 1.152 0 2.224 0.166 3.214 0.498s1.847 0.809 2.574 1.428c0.727 0.62 1.297 1.378 1.71 2.274 0.415 0.895 0.621 1.914 0.621 3.054 0 0.802-0.141 1.554-0.422 2.255-0.283 0.702-0.671 1.31-1.166 1.823-0.496 0.513-1.072 0.919-1.73 1.221-0.658 0.301-1.362 0.451-2.114 0.451-0.313 0-0.604-0.034-0.874-0.103s-0.496-0.183-0.676-0.347c-0.182-0.162-0.317-0.377-0.404-0.639-0.087-0.263-0.113-0.588-0.076-0.976h-0.075c-0.188 0.263-0.391 0.519-0.611 0.77s-0.461 0.473-0.723 0.667c-0.263 0.194-0.551 0.349-0.864 0.461-0.314 0.113-0.658 0.17-1.034 0.17-0.301 0-0.589-0.066-0.865-0.197-0.275-0.131-0.514-0.317-0.714-0.555-0.202-0.237-0.361-0.526-0.479-0.863-0.119-0.338-0.179-0.715-0.179-1.127 0-0.777 0.126-1.532 0.377-2.265 0.25-0.733 0.592-1.381 1.024-1.946 0.433-0.563 0.933-1.018 1.503-1.362 0.571-0.345 1.174-0.517 1.813-0.517 0.438 0 0.809 0.066 1.108 0.197s0.576 0.304 0.827 0.517l0.581-0.607zM17.53 14.014c-0.163-0.138-0.332-0.244-0.508-0.32-0.175-0.075-0.395-0.112-0.658-0.112-0.375 0-0.723 0.107-1.043 0.319-0.32 0.213-0.595 0.489-0.827 0.828-0.233 0.338-0.411 0.717-0.537 1.137s-0.188 0.83-0.188 1.23c0 0.414 0.084 0.752 0.253 1.014 0.17 0.263 0.461 0.396 0.874 0.396 0.175 0 0.364-0.053 0.563-0.16 0.201-0.107 0.396-0.247 0.582-0.422 0.188-0.176 0.369-0.377 0.545-0.602 0.175-0.225 0.332-0.463 0.469-0.715l0.474-2.593z" fill="rgb(255, 255, 255)" opacity="1" visibility="false"/>
    </symbol>
    <symbol id="icon_activity_question">
      <path class="path1" d="M32 16c0 8.837-7.163 16-16 16s-16-7.163-16-16c0-8.837 7.163-16 16-16s16 7.163 16 16z" fill="rgb(72, 139, 240)" opacity="1" visibility="false"/>
      <path class="path2" d="M21.467 10.133c0.578 0 1.067 0.489 1.067 1.067v10.667c0 0.578-0.489 1.067-1.067 1.067h-10.667c-0.578 0-1.067-0.489-1.067-1.067v-10.667c0-0.578 0.489-1.067 1.067-1.067h10.667zM21.467 8h-10.667c-1.76 0-3.2 1.44-3.2 3.2v10.667c0 1.76 1.44 3.2 3.2 3.2h10.667c1.76 0 3.2-1.44 3.2-3.2v-10.667c0-1.76-1.44-3.2-3.2-3.2v0z" fill="rgb(255, 255, 255)" opacity="1" visibility="false"/>
      <path class="path3" d="M11.867 12.267h8.533v2.133h-8.533v-2.133z" fill="rgb(255, 255, 255)" opacity="1" visibility="false"/>
      <path class="path4" d="M11.867 15.467h8.533v2.133h-8.533v-2.133z" fill="rgb(255, 255, 255)" opacity="1" visibility="false"/>
      <path class="path5" d="M11.867 18.667h5.333v2.133h-5.333v-2.133z" fill="rgb(255, 255, 255)" opacity="1" visibility="false"/>
    </symbol>
    <symbol id="icon_activity_moderation_delete">
      <path class="path1" d="M32 16c0 8.837-7.163 16-16 16s-16-7.163-16-16c0-8.837 7.163-16 16-16s16 7.163 16 16z" fill="rgb(115, 130, 157)" opacity="1" visibility="false"/>
      <path class="path2" d="M7.799 11.867h17.067v2.133h-17.067v-2.133z" fill="rgb(255, 255, 255)" opacity="1" visibility="false"/>
      <path class="path3" d="M20.599 10.8h-8.533v-3.2h8.533v3.2zM13.133 9.733h6.4v-1.067h-6.4v1.067z" fill="rgb(255, 255, 255)" opacity="1" visibility="false"/>
      <path class="path4" d="M7.799 9.733h17.067v1.067h-17.067v-1.067z" fill="rgb(255, 255, 255)" opacity="1" visibility="false"/>
      <path class="path5" d="M19.533 14v8.533h-2.133v-8.533h-2.133v8.533h-2.133v-8.533h-3.2v10.667h12.8v-10.667z" fill="rgb(255, 255, 255)" opacity="1" visibility="false"/>
    </symbol>
    <symbol id="icon_activity_moderation_return">
      <path class="path1" d="M32 16c0 8.837-7.163 16-16 16s-16-7.163-16-16c0-8.837 7.163-16 16-16s16 7.163 16 16z" fill="rgb(115, 130, 157)" opacity="1" visibility="false"/>
      <path class="path2" d="M28.3 16.708l-5.795-5.27-4.657 5.121 4.050 0.058c-0.305 3.247-3.044 5.797-6.369 5.797-3.529 0-6.4-2.871-6.4-6.4s2.871-6.4 6.4-6.4v-2.133c-4.713 0-8.533 3.821-8.533 8.533s3.821 8.533 8.533 8.533c4.499 0 8.176-3.484 8.501-7.9l4.27 0.061z" fill="rgb(255, 255, 255)" opacity="1" visibility="false"/>
    </symbol>
    <symbol id="icon_activity_right_answer">
      <path class="path1" d="M32 16c0 8.837-7.163 16-16 16s-16-7.163-16-16c0-8.837 7.163-16 16-16s16 7.163 16 16z" fill="rgb(101, 193, 120)" opacity="1" visibility="false"/>
      <path class="path2" d="M25.308 12.666l-2.178-2.532-8.758 7.534-3.837-4.468-2.534 2.176 3.839 4.47-0.003-0.254 2.178 2.275h0.386v0.49l2.342-2.164-0.099 0.003z" fill="rgb(255, 255, 255)" opacity="1" visibility="false"/>
    </symbol>
    <symbol id="icon_activity_subscription_question">
      <path class="path1" d="M32 16c0 8.837-7.163 16-16 16s-16-7.163-16-16c0-8.837 7.163-16 16-16s16 7.163 16 16z" fill="rgb(248, 123, 126)" opacity="1" visibility="false"/>
      <path class="path2" d="M21.467 10.133c0.578 0 1.067 0.489 1.067 1.067v10.667c0 0.578-0.489 1.067-1.067 1.067h-10.667c-0.578 0-1.067-0.489-1.067-1.067v-10.667c0-0.578 0.489-1.067 1.067-1.067h10.667zM21.467 8h-10.667c-1.76 0-3.2 1.44-3.2 3.2v10.667c0 1.76 1.44 3.2 3.2 3.2h10.667c1.76 0 3.2-1.44 3.2-3.2v-10.667c0-1.76-1.44-3.2-3.2-3.2v0z" fill="rgb(255, 255, 255)" opacity="1" visibility="false"/>
      <path class="path3" d="M11.867 12.267h8.533v2.133h-8.533v-2.133z" fill="rgb(255, 255, 255)" opacity="1" visibility="false"/>
      <path class="path4" d="M11.867 15.467h8.533v2.133h-8.533v-2.133z" fill="rgb(255, 255, 255)" opacity="1" visibility="false"/>
      <path class="path5" d="M11.867 18.667h5.333v2.133h-5.333v-2.133z" fill="rgb(255, 255, 255)" opacity="1" visibility="false"/>
    </symbol>
    <symbol id="icon_activity_subscription_tag">
      <path class="path1" d="M32 16c0 8.837-7.163 16-16 16s-16-7.163-16-16c0-8.837 7.163-16 16-16s16 7.163 16 16z" fill="rgb(244, 152, 78)" opacity="1" visibility="false"/>
      <path class="path2" d="M18.285 24.453c-0.876 0-1.699-0.341-2.32-0.96l1.547-1.547c0.411 0.413 1.132 0.414 1.546 0.001l3.865-3.866c0.206-0.206 0.32-0.48 0.32-0.772s-0.113-0.566-0.32-0.772l-6.958-6.956 1.547-1.547 6.957 6.956c0.619 0.619 0.96 1.442 0.96 2.319 0 0.876-0.34 1.7-0.959 2.319l-3.865 3.865c-0.62 0.619-1.443 0.96-2.319 0.96z" fill="rgb(255, 255, 255)" opacity="1" visibility="false"/>
      <path class="path3" d="M18.285 24.453c-0.876 0-1.699-0.341-2.32-0.96l-6.822-6.967 1.411-1.534 6.957 6.956c0.411 0.413 1.132 0.414 1.546 0.001l1.547 1.545c-0.619 0.619-1.442 0.96-2.318 0.96z" fill="rgb(255, 255, 255)" opacity="1" visibility="false"/>
      <path class="path4" d="M15.903 13.734c0 0.67-0.543 1.213-1.213 1.213s-1.213-0.543-1.213-1.213c0-0.67 0.543-1.213 1.213-1.213s1.213 0.543 1.213 1.213z" fill="rgb(255, 255, 255)" opacity="1" visibility="false"/>
      <path class="path5" d="M11.2 16.575l-2.133-0.050v-8.525l2.133 0.050z" fill="rgb(255, 255, 255)" opacity="1" visibility="false"/>
      <path class="path6" d="M9.127 8.049h8.378v2.11h-8.378v-2.11z" fill="rgb(255, 255, 255)" opacity="1" visibility="false"/>
    </symbol>
    <symbol id="icon_activity_subscription_user">
      <path class="path1" d="M32 16c0 8.837-7.163 16-16 16s-16-7.163-16-16c0-8.837 7.163-16 16-16s16 7.163 16 16z" fill="rgb(244, 152, 78)" opacity="1" visibility="false"/>
      <path class="path2" d="M13.050 18.075c-2.753 0-4.993-2.24-4.993-4.993s2.24-4.993 4.993-4.993 4.993 2.24 4.993 4.993-2.24 4.993-4.993 4.993zM13.050 10.223c-1.577 0-2.86 1.283-2.86 2.86s1.283 2.86 2.86 2.86 2.86-1.283 2.86-2.86-1.283-2.86-2.86-2.86z" fill="rgb(255, 255, 255)" opacity="1" visibility="false"/>
      <path class="path3" d="M18.667 24h-2.133v-2.714c0-1.444-1.175-2.62-2.621-2.62h-1.159c-1.444 0-2.62 1.175-2.62 2.62v2.714h-2.133v-2.714c0-2.621 2.132-4.753 4.754-4.753h1.159c2.621 0 4.753 2.132 4.753 4.753v2.714z" fill="rgb(255, 255, 255)" opacity="1" visibility="false"/>
      <path class="path4" d="M19.733 20.208v-2.133c1.067 0 2.893-1.31 2.893-2.86 0-1.577-1.826-2.86-2.893-2.86v-2.133c2.133 0 5.026 2.24 5.026 4.993s-2.893 4.993-5.026 4.993z" fill="rgb(255, 255, 255)" opacity="1" visibility="false"/>
      <path class="path5" d="M25.067 24h-2.133v-0.58c0-0.211-0.025-0.421-0.075-0.624-0.287-1.174-1.333-1.996-2.546-1.996h-0.579v-2.133h0.579c2.199 0 4.098 1.489 4.619 3.622 0.090 0.369 0.135 0.749 0.135 1.131v0.58z" fill="rgb(255, 255, 255)" opacity="1" visibility="false"/>
    </symbol>
    <symbol id="icon_activity_invite_to_answer" viewBox="0 0 1024 1024">
      <title>activity_invite_to_answer</title>
      <path class="path1" d="M1024 512c0 282.77-229.23 512-512 512s-512-229.23-512-512c0-282.77 229.23-512 512-512s512 229.23 512 512z" fill="rgb(202, 148, 78)"></path>
      <path class="path2" d="M240.293 415.203l487.41-85.92 10.666 60.506-487.41 85.92-10.666-60.506z" fill="rgb(255, 255, 255)"></path>
      <path class="path3" d="M715.285 739.766l-477.326-84.143 11.259-63.868 477.326 84.143-11.259 63.868z" fill="rgb(255, 255, 255)"></path>
      <path class="path4" d="M238.933 416.427h68.267v232.107h-68.267v-232.107z" fill="rgb(255, 255, 255)"></path>
      <path class="path5" d="M716.8 290.133h68.267v494.933h-68.267v-494.933z" fill="rgb(255, 255, 255)"></path>
      <path class="path6" d="M433.493 791.893l-68.267 13.653-13.653-136.533 64.853-13.653z" fill="rgb(255, 255, 255)"></path>
    </symbol>
    <symbol id="icon_activity_revision_approved" viewBox="0 0 1024 1024">
      <title>activity_revision_approved</title>
      <path class="path1" d="M1024 512c0 282.77-229.23 512-512 512s-512-229.23-512-512c0-282.77 229.23-512 512-512s512 229.23 512 512z" fill="rgb(101, 193, 120)"></path>
      <path class="path2" d="M542.72 491.52l-218.453-126.293 218.453-126.293 218.453 126.293-218.453 126.293zM460.8 365.227l81.92 47.787 81.92-47.787-81.92-47.787-81.92 47.787z" fill="rgb(255, 255, 255)"></path>
      <path class="path3" d="M604.16 501.76l20.48 13.653-81.92 44.373-81.92-44.373 23.893-13.653-71.68-37.547-88.747 51.2 218.453 119.467 218.453-119.467-88.747-51.2z" fill="rgb(255, 255, 255)"></path>
      <path class="path4" d="M610.987 651.947l20.48 10.24-81.92 47.787-81.92-47.787 20.48-10.24-68.267-40.96-88.747 51.2 218.453 122.88 218.453-122.88-88.747-51.2z" fill="rgb(255, 255, 255)"></path>
    </symbol>
    <symbol id="icon_activity_revision_new" viewBox="0 0 1024 1024">
      <title>activity_revision_new</title>
      <path class="path1" d="M1024 512c0 282.77-229.23 512-512 512s-512-229.23-512-512c0-282.77 229.23-512 512-512s512 229.23 512 512z" fill="rgb(139, 142, 253)"></path>
      <path class="path2" d="M542.72 491.52l-218.453-126.293 218.453-126.293 218.453 126.293-218.453 126.293zM460.8 365.227l81.92 47.787 81.92-47.787-81.92-47.787-81.92 47.787z" fill="rgb(255, 255, 255)"></path>
      <path class="path3" d="M604.16 501.76l20.48 13.653-81.92 44.373-81.92-44.373 23.893-13.653-71.68-37.547-88.747 51.2 218.453 119.467 218.453-119.467-88.747-51.2z" fill="rgb(255, 255, 255)"></path>
      <path class="path4" d="M610.987 651.947l20.48 10.24-81.92 47.787-81.92-47.787 20.48-10.24-68.267-40.96-88.747 51.2 218.453 122.88 218.453-122.88-88.747-51.2z" fill="rgb(255, 255, 255)"></path>
    </symbol>

    <symbol id="icon_logo" viewBox="0 0 107 22">
      <title>logo</title>
      <path d="M14.85 17.0001L9.74604 9.27811L14.806 1.51211H11.088L7.70004 6.79211L4.35604 1.51211H0.506036L5.56604 9.21211L0.462036 17.0001H4.22404L7.61204 11.6981L11.022 17.0001H14.85Z" fill="white"/>
      <path d="M21.3495 5.36211C18.3795 5.36211 16.6855 6.99011 16.3775 8.94811H19.3695C19.5455 8.35411 20.1175 7.84811 21.2175 7.84811C22.2955 7.84811 23.0875 8.39811 23.0875 9.45411V9.98211H20.6015C17.6975 9.98211 15.9375 11.3241 15.9375 13.6561C15.9375 15.9441 17.6975 17.2641 19.8975 17.2641C21.3715 17.2641 22.5595 16.6921 23.2635 15.7681V17.0001H26.2335V9.56411C26.2335 6.79211 24.2755 5.36211 21.3495 5.36211ZM20.7775 14.7781C19.7875 14.7781 19.1495 14.2941 19.1495 13.5021C19.1495 12.6881 19.8535 12.2041 20.8435 12.2041H23.0875V12.7101C23.0875 14.0301 22.0095 14.7781 20.7775 14.7781Z" fill="white"/>
      <path d="M35.134 5.82411C33.55 5.82411 32.252 6.39611 31.416 7.56211C31.636 5.42811 32.494 4.37211 34.65 4.04211L38.984 3.40411V0.610107L34.342 1.38011C29.854 2.12811 28.468 5.12011 28.468 10.1141C28.468 14.6021 30.646 17.2641 34.496 17.2641C37.95 17.2641 40.084 14.6241 40.084 11.4561C40.084 8.04611 38.104 5.82411 35.134 5.82411ZM34.342 14.5801C32.67 14.5801 31.746 13.2381 31.746 11.4341C31.746 9.69611 32.714 8.44211 34.364 8.44211C35.97 8.44211 36.872 9.74011 36.872 11.4561C36.872 13.1721 35.992 14.5801 34.342 14.5801Z" fill="white"/>
      <path d="M48.6513 5.36211C46.9793 5.36211 45.9013 6.08811 45.3293 6.94611V5.62611H42.2493V21.2021H45.4613V15.9001C46.0333 16.6921 47.1113 17.2641 48.5633 17.2641C51.3573 17.2641 53.5793 15.0641 53.5793 11.3241C53.5793 7.51811 51.3573 5.36211 48.6513 5.36211ZM47.8813 14.4921C46.3853 14.4921 45.3953 13.2821 45.3953 11.3681V11.2801C45.3953 9.36611 46.3853 8.13411 47.8813 8.13411C49.3773 8.13411 50.3453 9.38811 50.3453 11.3241C50.3453 13.2601 49.3773 14.4921 47.8813 14.4921Z" fill="white"/>
      <path d="M74.5895 9.25611C74.5895 4.65811 71.7955 1.27011 67.4615 1.27011C63.1275 1.27011 60.3335 4.65811 60.3335 9.25611C60.3335 13.8541 63.1275 17.2421 67.4615 17.2421C68.6055 17.2421 69.6395 17.0221 70.5415 16.6041L71.7075 18.3421H73.8855L72.0375 15.6141C73.6655 14.1841 74.5895 11.9181 74.5895 9.25611ZM67.4615 15.4161C64.2935 15.4161 62.3355 12.8641 62.3355 9.25611C62.3355 5.64811 64.2935 3.09611 67.4615 3.09611C70.6295 3.09611 72.5875 5.64811 72.5875 9.25611C72.5875 11.2361 72.0155 12.9081 70.9595 13.9861L69.8375 12.3141H67.6595L69.4855 15.0201C68.8915 15.2841 68.2095 15.4161 67.4615 15.4161Z" fill="white"/>
      <path d="M91.1545 17.0001L88.1625 13.7661L91.1105 10.1141H88.8885L87.0185 12.5341L83.5205 8.77211C85.5665 7.80411 86.6445 6.59411 86.6445 4.85611C86.6445 2.78811 85.0605 1.27011 82.7725 1.27011C80.3965 1.27011 78.7245 2.89811 78.7245 4.87811C78.7245 6.19811 79.4945 7.12211 80.3525 8.00211L80.6165 8.26611C78.1745 9.25611 76.9425 10.7301 76.9425 12.7321C76.9425 15.1961 78.8565 17.2421 82.0245 17.2421C83.9385 17.2421 85.5005 16.4941 86.7545 15.2401L86.9525 15.0421L88.7565 17.0001H91.1545ZM82.7285 2.92011C83.8945 2.92011 84.8185 3.62411 84.8185 4.83411C84.8185 6.00011 83.9825 6.90211 82.3765 7.62811L81.7605 7.01211C81.2985 6.55011 80.5945 5.82411 80.5945 4.81211C80.5945 3.66811 81.5185 2.92011 82.7285 2.92011ZM82.1345 15.5041C80.0665 15.5041 78.9445 14.3161 78.9445 12.6661C78.9445 11.2581 79.7805 10.2021 81.7825 9.43211L85.8305 13.8321L85.6985 13.9641C84.7305 14.9761 83.4985 15.5041 82.1345 15.5041Z" fill="white"/>
      <path d="M103.751 17.0001H105.863L100.011 1.51211H97.9874L92.1354 17.0001H94.2474L95.7434 12.9081H102.233L103.751 17.0001ZM98.9773 3.97611L101.573 11.1041H96.4034L98.9773 3.97611Z" fill="white"/>
    </symbol>

    <symbol id="icon_close">
      <path class="path1" d="M1.854 0.001l30.145 30.145-1.853 1.853-30.145-30.145 1.853-1.853z"/>
      <path class="path2" d="M30.145 0.001l1.853 1.853-30.145 30.145-1.853-1.853 30.145-30.145z"/>
    </symbol>
    <symbol id="icon_arrow_right">
      <path class="path1" d="M19.314 3.363l-3.363-3.363-15.951 15.951 0.049 0.049-0.049 0.049 15.951 15.951 3.363-3.363-12.635-12.637z"/>
    </symbol>
    <symbol id="icon_arrow_right_revision">
      <path class="path1" d="M19.314 3.363l-3.363-3.363-15.951 15.951 0.049 0.049-0.049 0.049 15.951 15.951 3.363-3.363-12.635-12.637z"/>
    </symbol>
    <symbol id="icon_burger" viewBox="0 0 18 14">
        <rect width="18" height="2" rx="1" />
        <rect y="6" width="18" height="2" rx="1" />
        <rect y="12" width="18" height="2" rx="1"/>
    </symbol>
    <symbol id="icon_search" viewBox="0 0 24 24">
      <path fill-rule="evenodd" clip-rule="evenodd" d="M17 11C17 14.3137 14.3137 17 11 17C7.68629 17 5 14.3137 5 11C5 7.68629 7.68629 5 11 5C14.3137 5 17 7.68629 17 11ZM15.5838 17.5574C14.2857 18.4665 12.7051 19 11 19C6.58172 19 3 15.4183 3 11C3 6.58172 6.58172 3 11 3C15.4183 3 19 6.58172 19 11C19 12.9998 18.2662 14.8282 17.0533 16.2307C17.0767 16.2502 17.0994 16.2709 17.1214 16.2929L20.4143 19.5858C20.8048 19.9763 20.8048 20.6095 20.4143 21C20.0238 21.3905 19.3906 21.3905 19.0001 21L15.7072 17.7071C15.6605 17.6604 15.6194 17.6102 15.5838 17.5574Z" />
    </symbol>
    <symbol id="icon_plus" viewBox="0 0 24 24" >
      <rect x="11" y="2" width="2" height="20" rx="1" />
      <rect x="22" y="11" width="2" height="20" rx="1" transform="rotate(90 22 11)" />
    </symbol>
    <symbol id="icon_editor_extembed" viewBox="0 0 24 24" >
      <rect x="11" y="2" width="2" height="20" rx="1" />
      <rect x="22" y="11" width="2" height="20" rx="1" transform="rotate(90 22 11)" />
    </symbol>
    <symbol id="icon_menu_control_panel">
      <path class="path1" d="M26 4c1.084 0 2 0.916 2 2v20c0 1.084-0.916 2-2 2h-20c-1.084 0-2-0.916-2-2v-20c0-1.084 0.916-2 2-2h20zM26 0h-20c-3.3 0-6 2.7-6 6v20c0 3.3 2.7 6 6 6h20c3.3 0 6-2.7 6-6v-20c0-3.3-2.7-6-6-6v0z" fill="#A7B3CB"/>
      <path class="path2" d="M6 10h20v4h-20v-4z" fill="#31B6FC"/>
      <path class="path3" d="M10 8h4v8h-4v-8z" fill="#31B6FC"/>
      <path class="path4" d="M6 18h20v4h-20v-4z" fill="#31B6FC"/>
      <path class="path5" d="M18 16h4v8h-4v-8z" fill="#31B6FC"/>
    </symbol>
    <symbol id="icon_menu_lock">
      <path class="path1" d="M14 16h4v10h-4v-10z" fill="rgb(49, 182, 252)" opacity="1" visibility="false"/>
      <path class="path2" d="M12 7.75c0-1.964 1.598-3.75 3.562-3.75h0.656c1.966 0 3.782 1.786 3.782 3.75v2.25h4v-2.25c0-4.176-3.386-7.75-7.562-7.75h-0.876c-4.176 0-7.562 3.574-7.562 7.75v2.25h4v-2.25z" fill="rgb(167, 179, 203)" opacity="1" visibility="false"/>
      <path class="path3" d="M28 10h-24c-2.21 0-4 1.79-4 4v14c0 2.21 1.79 4 4 4h24c2.21 0 4-1.79 4-4v-14c0-2.21-1.79-4-4-4zM28 28h-24v-14h24v14z" fill="rgb(167, 179, 203)" opacity="1" visibility="false"/>
    </symbol>
    <symbol id="icon_menu_exit">
      <path class="path1" d="M29.636 16.032l-5.636-5.636v3.604h-18v4h18v3.666z" opacity="1" visibility="false"/>
      <path class="path2" d="M18 22v6h-14v-24h14v6h4v-6c0-2.21-1.79-4-4-4h-14c-2.21 0-4 1.79-4 4v24c0 2.21 1.79 4 4 4h14c2.21 0 4-1.79 4-4v-6h-4z" opacity="1" visibility="false"/>
    </symbol>

    <symbol id="icon_menu_settings" viewBox="0 0 1024 1024">
      <path class="path1" d="M576 512c0 35.346-28.654 64-64 64s-64-28.654-64-64c0-35.346 28.654-64 64-64s64 28.654 64 64z"></path>
      <path class="path2" d="M931.584 416h-48.192c-9.088-35.136-22.912-68.288-40.896-98.752l34.048-34.048c36.096-36.096 34.944-95.744-2.56-133.184-37.504-37.504-97.152-38.656-133.184-2.56l-34.048 34.048c-30.464-18.048-63.616-31.872-98.752-40.896v-48.192c0-51.072-43.008-92.416-96-92.416s-96 41.344-96 92.416v48.192c-35.136 9.024-68.288 22.848-98.752 40.896l-34.048-34.112c-36.096-36.032-95.744-34.944-133.248 2.56s-38.592 97.152-2.56 133.248l34.048 34.048c-17.984 30.464-31.808 63.616-40.832 98.752h-48.192c-51.072 0-92.416 43.008-92.416 96s41.344 96 92.416 96h48.192c9.088 35.136 22.912 68.288 40.896 98.752l-34.048 34.048c-36.096 36.096-34.944 95.744 2.56 133.184 37.504 37.504 97.152 38.656 133.184 2.56l34.048-34.048c30.464 17.984 63.616 31.808 98.752 40.896v48.192c0 51.072 43.008 92.416 96 92.416s96-41.344 96-92.416v-48.192c35.136-9.088 68.288-22.912 98.752-40.896l34.048 34.048c36.096 36.096 95.744 34.944 133.184-2.56 37.504-37.504 38.656-97.152 2.56-133.184l-34.048-34.048c17.984-30.464 31.808-63.616 40.896-98.752h48.192c51.072 0 92.416-43.008 92.416-96s-41.344-96-92.416-96zM512 768c-141.376 0-256-114.624-256-256s114.624-256 256-256 256 114.624 256 256-114.624 256-256 256z"></path>
    </symbol>
    <symbol id="icon_menu_settings_tag" viewBox="0 0 1024 1024">
      <path class="path1" d="M576 512c0 35.346-28.654 64-64 64s-64-28.654-64-64c0-35.346 28.654-64 64-64s64 28.654 64 64z"></path>
      <path class="path2" d="M931.584 416h-48.192c-9.088-35.136-22.912-68.288-40.896-98.752l34.048-34.048c36.096-36.096 34.944-95.744-2.56-133.184-37.504-37.504-97.152-38.656-133.184-2.56l-34.048 34.048c-30.464-18.048-63.616-31.872-98.752-40.896v-48.192c0-51.072-43.008-92.416-96-92.416s-96 41.344-96 92.416v48.192c-35.136 9.024-68.288 22.848-98.752 40.896l-34.048-34.112c-36.096-36.032-95.744-34.944-133.248 2.56s-38.592 97.152-2.56 133.248l34.048 34.048c-17.984 30.464-31.808 63.616-40.832 98.752h-48.192c-51.072 0-92.416 43.008-92.416 96s41.344 96 92.416 96h48.192c9.088 35.136 22.912 68.288 40.896 98.752l-34.048 34.048c-36.096 36.096-34.944 95.744 2.56 133.184 37.504 37.504 97.152 38.656 133.184 2.56l34.048-34.048c30.464 17.984 63.616 31.808 98.752 40.896v48.192c0 51.072 43.008 92.416 96 92.416s96-41.344 96-92.416v-48.192c35.136-9.088 68.288-22.912 98.752-40.896l34.048 34.048c36.096 36.096 95.744 34.944 133.184-2.56 37.504-37.504 38.656-97.152 2.56-133.184l-34.048-34.048c17.984-30.464 31.808-63.616 40.896-98.752h48.192c51.072 0 92.416-43.008 92.416-96s-41.344-96-92.416-96zM512 768c-141.376 0-256-114.624-256-256s114.624-256 256-256 256 114.624 256 256-114.624 256-256 256z"></path>
    </symbol>
    <symbol id="icon_menu_settings_tracker" viewBox="0 0 1024 1024">
      <path class="path1" d="M576 512c0 35.346-28.654 64-64 64s-64-28.654-64-64c0-35.346 28.654-64 64-64s64 28.654 64 64z"></path>
      <path class="path2" d="M931.584 416h-48.192c-9.088-35.136-22.912-68.288-40.896-98.752l34.048-34.048c36.096-36.096 34.944-95.744-2.56-133.184-37.504-37.504-97.152-38.656-133.184-2.56l-34.048 34.048c-30.464-18.048-63.616-31.872-98.752-40.896v-48.192c0-51.072-43.008-92.416-96-92.416s-96 41.344-96 92.416v48.192c-35.136 9.024-68.288 22.848-98.752 40.896l-34.048-34.112c-36.096-36.032-95.744-34.944-133.248 2.56s-38.592 97.152-2.56 133.248l34.048 34.048c-17.984 30.464-31.808 63.616-40.832 98.752h-48.192c-51.072 0-92.416 43.008-92.416 96s41.344 96 92.416 96h48.192c9.088 35.136 22.912 68.288 40.896 98.752l-34.048 34.048c-36.096 36.096-34.944 95.744 2.56 133.184 37.504 37.504 97.152 38.656 133.184 2.56l34.048-34.048c30.464 17.984 63.616 31.808 98.752 40.896v48.192c0 51.072 43.008 92.416 96 92.416s96-41.344 96-92.416v-48.192c35.136-9.088 68.288-22.912 98.752-40.896l34.048 34.048c36.096 36.096 95.744 34.944 133.184-2.56 37.504-37.504 38.656-97.152 2.56-133.184l-34.048-34.048c17.984-30.464 31.808-63.616 40.896-98.752h48.192c51.072 0 92.416-43.008 92.416-96s-41.344-96-92.416-96zM512 768c-141.376 0-256-114.624-256-256s114.624-256 256-256 256 114.624 256 256-114.624 256-256 256z"></path>
    </symbol>
    <symbol id="icon_menu_feed">
      <path class="path1" d="M18 28h4v4h-4z" fill="#A7B3CB"/>
      <path class="path2" d="M8 8h8v4h-8z" fill="#31B6FC"/>
      <path class="path3" d="M8 14h8v4h-8zM8 20h8v4h-8zM24.988 32h-4.988v-4h4.988c0.836 0 1.012-0.868 1.012-1.596v-10.786c0-0.738-0.176-1.62-1.012-1.62h-4.988v-4h4.988c2.952 0 5.012 2.31 5.012 5.62v10.786c0 3.294-2.060 5.596-5.012 5.596zM18 32h-12.228c-3.128 0-5.772-2.568-5.772-5.606v-21.636c0-2.89 2.266-4.758 5.772-4.758h12.622c3.406 0 5.606 1.868 5.606 4.758l0.084 9.14-4 0.038-0.084-9.16c0-0.264 0-0.776-1.606-0.776h-12.622c-0.534 0-1.772 0.074-1.772 0.758v21.636c0 0.84 0.844 1.606 1.772 1.606h12.228v4zM20 12h4v12h-4z" fill="#A7B3CB"/>
    </symbol>
    <symbol id="icon_menu_question">
      <path class="path1" d="M26 4c1.084 0 2 0.916 2 2v20c0 1.084-0.916 2-2 2h-20c-1.084 0-2-0.916-2-2v-20c0-1.084 0.916-2 2-2h20zM26 0h-20c-3.3 0-6 2.7-6 6v20c0 3.3 2.7 6 6 6h20c3.3 0 6-2.7 6-6v-20c0-3.3-2.7-6-6-6z" fill="#A7B3CB"/>
      <path class="path2" d="M8 8h16v4h-16zM8 14h16v4h-16zM8 20h10v4h-10z" fill="#31B6FC"/>
    </symbol>
    <symbol id="icon_menu_questions">
      <path class="path1" d="M26 4c1.084 0 2 0.916 2 2v20c0 1.084-0.916 2-2 2h-20c-1.084 0-2-0.916-2-2v-20c0-1.084 0.916-2 2-2h20zM26 0h-20c-3.3 0-6 2.7-6 6v20c0 3.3 2.7 6 6 6h20c3.3 0 6-2.7 6-6v-20c0-3.3-2.7-6-6-6z" fill="#A7B3CB"/>
      <path class="path2" d="M8 8h16v4h-16zM8 14h16v4h-16zM8 20h10v4h-10z" fill="#31B6FC"/>
    </symbol>
    <symbol id="icon_menu_users">
      <path class="path1" d="M10.158 20.083c-5.537 0-10.042-4.505-10.042-10.042s4.505-10.042 10.042-10.042 10.042 4.505 10.042 10.042-4.505 10.042-10.042 10.042zM10.158 4.293c-3.171 0-5.751 2.581-5.751 5.751s2.581 5.751 5.751 5.751 5.751-2.581 5.751-5.751-2.581-5.751-5.751-5.751zM21.454 32h-4.29v-5.455c0-2.905-2.364-5.271-5.271-5.271h-2.332c-2.905 0-5.271 2.364-5.271 5.271v5.455h-4.29v-5.455c0-5.273 4.288-9.561 9.561-9.561h2.332c5.273 0 9.561 4.288 9.561 9.561v5.455z" fill="#A7B3CB"/>
      <path class="path2" d="M23.599 24.374v-4.29c2.145 0 5.818-2.634 5.818-5.751 0-3.171-3.673-5.751-5.818-5.751v-4.29c4.29 0 10.108 4.505 10.108 10.042s-5.818 10.042-10.108 10.042zM34.325 32h-4.29v-1.165c0-0.425-0.049-0.847-0.15-1.255-0.577-2.364-2.681-4.016-5.121-4.016h-1.165v-4.29h1.165c4.423 0 8.242 2.997 9.289 7.287 0.18 0.74 0.272 1.504 0.272 2.272v1.167z" fill="#31B6FC"/>
    </symbol>
    <symbol id="icon_menu_tags">
      <path class="path1" d="M17.928 32c-1.703 0-3.305-0.664-4.512-1.867l3.008-3.008c0.799 0.803 2.201 0.805 3.006 0.002l7.516-7.518c0.4-0.4 0.622-0.934 0.62-1.502 0-0.568-0.22-1.102-0.62-1.502l-13.532-13.528 3.008-3.008 13.53 13.528c1.203 1.203 1.867 2.805 1.867 4.51 0 1.703-0.662 3.307-1.865 4.51l-7.516 7.516c-1.205 1.203-2.807 1.867-4.51 1.867zM17.928 32c-1.703 0-3.305-0.664-4.512-1.867l-13.269-13.551 2.745-2.983 13.53 13.528c0.799 0.803 2.201 0.805 3.006 0.002l3.008 3.004c-1.203 1.203-2.805 1.867-4.508 1.867z" fill="#A7B3CB"/>
      <path class="path2" d="M13.296 11.153c0 1.303-1.056 2.359-2.359 2.359s-2.359-1.056-2.359-2.359c0-1.303 1.056-2.359 2.359-2.359s2.359 1.056 2.359 2.359z" fill="#31B6FC"/>
      <path class="path3" d="M4.149 16.677l-4.149-0.098v-16.58l4.149 0.098zM0.118 0.095h16.294v4.103h-16.294z" fill="#A7B3CB"/>
    </symbol>
    <symbol id="icon_menu_notification">
      <path class="path1" d="M14.545 10.845c-2.323 0.37-4.125 2.387-4.125 4.811v4.45h0.825v-4.45c0-1.976 1.427-3.626 3.3-3.986v-0.825z" fill="#31B6FC"/>
      <path class="path2" d="M12.162 21.024h-2.66v-5.368c0-2.815 2.106-5.274 4.899-5.719l1.063-0.168v2.658l-0.745 0.144c-1.48 0.285-2.557 1.582-2.557 3.085v5.368z" fill="#31B6FC"/>
      <path class="path3" d="M6.878 23.93v-9.309c0-3.843 4.051-7.886 7.896-7.886h0.516c3.843 0 7.064 4.041 7.064 7.886v9.309h3.439v-9.309c0-6.132-4.371-11.325-10.503-11.325h-0.516c-6.132 0-11.335 5.193-11.335 11.325v9.309h3.439z" fill="#A7B3CB"/>
      <path class="path4" d="M0 23.93h29.232v3.439h-29.232v-3.439z" fill="#A7B3CB"/>
      <path class="path5" d="M18.359 3.289c0 1.817-1.473 3.289-3.289 3.289s-3.289-1.473-3.289-3.289c0-1.817 1.473-3.289 3.289-3.289s3.289 1.473 3.289 3.289z" fill="#A7B3CB"/>
      <path class="path6" d="M15.321 25.65c0.899 0 1.589 0.906 1.589 1.862 0 1.1-0.894 1.969-1.995 1.969s-1.995-0.858-1.995-1.957c0-0.956 0.69-1.876 1.589-1.876h-3.666c-0.273 0-0.438 1.176-0.438 1.862 0 2.493 2.020 4.488 4.514 4.488s4.514-1.984 4.514-4.476c0-0.686-0.165-1.876-0.438-1.876h-3.673z" fill="#A7B3CB"/>
    </symbol>
    <symbol id="icon_sharing">
      <path class="path1" d="M14 20h4v-12h5.47l-7.596-7.598-7.596 7.598h5.722z"/>
      <path class="path2" d="M26 0v4c1.084 0 2 0.916 2 2v20c0 1.084-0.916 2-2 2h-20c-1.084 0-2-0.916-2-2v-20c0-1.084 0.916-2 2-2v-4c-3.3 0-6 2.7-6 6v20c0 3.3 2.7 6 6 6h20c3.3 0 6-2.7 6-6v-20c0-3.302-2.7-6-6-6z"/>
    </symbol>
    <symbol id="icon_check">
      <path class="path1" d="M45.315 6.63l-5.705-6.63-22.927 19.724-10.048-11.701-6.635 5.697 10.053 11.706-0.008-0.059 5.702 6.565h0.564v0.067l6.353-5.666-0.145 0.008z"/>
    </symbol>
    <symbol id="icon_check_answer">
      <path class="path1" d="M45.315 6.63l-5.705-6.63-22.927 19.724-10.048-11.701-6.635 5.697 10.053 11.706-0.008-0.059 5.702 6.565h0.564v0.067l6.353-5.666-0.145 0.008z"/>
    </symbol>
    <symbol id="icon_radio_dot">
      <path class="path1" d="M32 16c0 8.837-7.163 16-16 16s-16-7.163-16-16c0-8.837 7.163-16 16-16s16 7.163 16 16z"/>
    </symbol>
    <symbol id="icon_editor_spoiler">
      <path class="path1" d="M32 16c0 8.837-7.163 16-16 16s-16-7.163-16-16c0-8.837 7.163-16 16-16s16 7.163 16 16z"/>
    </symbol>
    <symbol id="icon_dots">
      <path class="path1" d="M32 16c0 8.837-7.163 16-16 16s-16-7.163-16-16c0-8.837 7.163-16 16-16s16 7.163 16 16z"/>
      <path class="path2" d="M131.46 16c0 8.837-7.163 16-16 16s-16-7.163-16-16c0-8.837 7.163-16 16-16s16 7.163 16 16z"/>
      <path class="path3" d="M81.73 16c0 8.837-7.163 16-16 16s-16-7.163-16-16c0-8.837 7.163-16 16-16s16 7.163 16 16z"/>
    </symbol>
    <symbol id="icon_arrow_down">
      <path class="path1" d="M51.19 6.401l-6.397-6.401-19.198 19.198-19.194-19.198-6.401 6.401 25.599 25.599 6.401-6.397-0.004-0.004z"/>
    </symbol>
    <symbol id="icon_editor_bold">
      <path class="path1" d="M8.356 0.572c1.554-0.328 4.010-0.572 6.504-0.572 3.56 0 5.852 0.612 7.568 2.006 1.432 1.062 2.292 2.7 2.292 4.868 0 2.658-1.758 4.99-4.664 6.054v0.082c2.618 0.654 5.686 2.824 5.686 6.914 0 2.372-0.942 4.17-2.332 5.524-1.924 1.758-5.032 2.578-9.532 2.578-2.456 0-4.338-0.164-5.524-0.33v-27.124zM11.916 11.864h3.232c3.764 0 5.972-1.964 5.972-4.622 0-3.232-2.456-4.5-6.054-4.5-1.638 0-2.576 0.122-3.15 0.244v8.878zM11.916 25.078c0.694 0.122 1.718 0.162 2.986 0.162 3.68 0 7.078-1.35 7.078-5.36 0-3.76-3.232-5.316-7.118-5.316h-2.946v10.514z" opacity="1" visibility="false"/>
    </symbol>
    <symbol id="icon_editor_italic">
      <path class="path1" d="M15.152 0h3.204l-5.928 28.030h-3.202l5.926-28.030z" opacity="1" visibility="false"/>
      <path class="path2" d="M6 24h12v4h-12v-4z" opacity="1" visibility="false"/>
      <path class="path3" d="M10 0h12v4h-12v-4z" opacity="1" visibility="false"/>
    </symbol>
    <symbol id="icon_editor_link">
      <path class="path1" d="M27.502 3.274l-0.036-0.024c-2.89-1.93-6.426-1.704-7.922 0.544l-5.624 8.454c-1.242 1.868-0.674 4.52 1.212 6.472l0.606-0.912c-1.388-1.644-1.73-3.806-0.674-5.394l5.038-7.578c1.34-2.014 4.406-2.326 6.858-0.696 2.452 1.632 3.27 4.696 1.932 6.71l-1.888 2.838 0.782 0.522 2.198-3.308c1.498-2.244 0.41-5.698-2.482-7.628z" opacity="1" visibility="false"/>
      <path class="path2" d="M15.194 19.422l-0.382-0.396c-2.070-2.144-2.588-5.032-1.26-7.024l5.622-8.454c0.922-1.384 2.562-2.13 4.5-2.044 1.386 0.060 2.782 0.538 4.040 1.378 3.126 2.086 4.296 5.786 2.642 8.27l-2.446 3.678-1.518-1.014 2.132-3.206c1.222-1.84 0.394-4.63-1.81-6.096-0.886-0.588-1.876-0.922-2.866-0.966-1.454-0.064-2.686 0.496-3.378 1.538l-5.038 7.578c-0.914 1.372-0.654 3.328 0.644 4.864l0.216 0.254-1.098 1.64zM23.634 2.39c-1.62-0.072-2.98 0.53-3.722 1.65l-5.624 8.454c-1.012 1.522-0.678 3.724 0.792 5.502l0.11-0.164c-1.366-1.8-1.576-4.040-0.494-5.666l5.038-7.578c0.858-1.286 2.41-2.010 4.154-1.932 1.154 0.050 2.298 0.436 3.32 1.116 2.602 1.732 3.544 5.086 2.054 7.326l-1.642 2.47 0.046 0.028 1.954-2.938c1.358-2.042 0.278-5.254-2.36-7.018-1.164-0.772-2.402-1.196-3.626-1.25z" opacity="1" visibility="false"/>
      <path class="path3" d="M15.26 20.142l-0.772-0.802c-2.216-2.296-2.756-5.418-1.312-7.588l5.622-8.454c1.032-1.548 2.856-2.364 5.004-2.238 1.43 0.086 2.868 0.586 4.16 1.448 3.332 2.224 4.556 6.206 2.768 8.894l-2.696 4.052-2.27-1.514 2.384-3.58c0.506-0.76 0.626-1.742 0.338-2.762-0.304-1.082-1.024-2.046-2.022-2.71-1.964-1.308-4.598-1.084-5.618 0.444l-5.038 7.576c-0.8 1.204-0.556 2.942 0.612 4.324l0.434 0.514-1.594 2.396z" opacity="1" visibility="false"/>
      <path class="path4" d="M15.322 20.846l-1.152-1.198c-2.364-2.448-2.924-5.796-1.364-8.142l5.636-8.758c1.1-1.65 3.036-2.842 5.294-2.742l0.12 0.006c1.512 0.066 3.010 0.92 4.366 1.824 3.52 2.348 4.81 6.766 2.886 9.66l-2.946 4.498-3.008-1.97 2.628-3.93c0.434-0.65 0.534-1.494 0.282-2.386-0.276-0.982-0.93-1.85-1.842-2.456-0.7-0.466-1.54-0.74-2.362-0.776-1.162-0.052-2.15 0.362-2.642 1.102l-5.038 7.58c-0.69 1.036-0.456 2.562 0.58 3.794l0.65 0.766-2.088 3.128zM23.742 2.224c-2.042-0.090-3.668 0.296-4.59 1.68l-5.616 8.272c-1.328 1.998-0.806 4.8 1.266 6.946l0.392 0.358 1.106-1.68-0.22-0.27c-1.296-1.536-1.554-3.492-0.642-4.862l5.038-7.58c0.668-1 1.944-1.56 3.418-1.494 0.998 0.044 1.97 0.364 2.816 0.924 1.088 0.722 1.872 1.774 2.202 2.958 0.322 1.146 0.182 2.256-0.398 3.126l-2.14 3.212 1.532 1.024 2.45-3.684c1.654-2.486 0.452-5.84-2.66-7.92-1.224-0.816-2.602-0.95-3.954-1.010 0.002 0 0.002 0 0 0z" opacity="1" visibility="false"/>
      <path class="path5" d="M9.574 28.8l0.038 0.024c2.926 1.876 6.458 1.584 7.912-0.692l5.464-8.556c1.208-1.89 0.59-4.532-1.332-6.45l-0.588 0.922c1.42 1.62 1.802 3.776 0.774 5.382l-4.898 7.67c-1.302 2.038-4.362 2.406-6.844 0.824-2.482-1.586-3.358-4.634-2.056-6.674l1.836-2.872-0.792-0.508-2.138 3.348c-1.454 2.274-0.302 5.706 2.624 7.582z" opacity="1" visibility="false"/>
      <path class="path6" d="M21.58 12.426l0.39 0.388c2.11 2.106 2.682 4.984 1.392 7l-5.464 8.556c-0.896 1.4-2.522 2.176-4.462 2.128-1.386-0.036-2.79-0.486-4.064-1.302-3.164-2.028-4.402-5.706-2.796-8.22l2.378-3.722 1.534 0.986-2.072 3.244c-1.188 1.862-0.308 4.636 1.922 6.060 0.896 0.572 1.892 0.888 2.884 0.914 1.454 0.036 2.676-0.546 3.35-1.602l4.898-7.67c0.888-1.39 0.592-3.34-0.734-4.852l-0.22-0.25 1.064-1.658zM13.458 29.612c1.622 0.042 2.968-0.584 3.692-1.718l5.464-8.556c0.986-1.542 0.61-3.738-0.892-5.488l-0.106 0.166c1.4 1.776 1.652 4.010 0.598 5.656l-4.896 7.668c-0.834 1.302-2.372 2.054-4.118 2.010-1.154-0.030-2.306-0.394-3.34-1.054-2.634-1.682-3.638-5.018-2.19-7.286l1.596-2.5-0.046-0.028-1.9 2.974c-1.32 2.068-0.18 5.258 2.492 6.972 1.176 0.752 2.422 1.154 3.646 1.184z" opacity="1" visibility="false"/>
      <path class="path7" d="M21.502 11.708l0.786 0.786c2.258 2.256 2.858 5.366 1.454 7.562l-5.464 8.556c-1.004 1.568-2.812 2.418-4.962 2.332-1.432-0.058-2.878-0.532-4.186-1.37-3.374-2.162-4.672-6.12-2.934-8.842l2.62-4.102 2.298 1.472-2.316 3.624c-0.492 0.77-0.594 1.754-0.288 2.768 0.326 1.076 1.060 2.026 2.072 2.672 1.988 1.272 4.618 1 5.61-0.548l4.898-7.67c0.778-1.22 0.5-2.952-0.692-4.312l-0.446-0.504 1.55-2.424z" opacity="1" visibility="false"/>
      <path class="path8" d="M21.426 11.006l1.176 1.176c2.408 2.404 3.030 5.742 1.514 8.116l-5.472 8.86c-1.068 1.67-2.984 2.898-5.242 2.84l-0.12-0.004c-1.512-0.038-3.028-0.864-4.398-1.742-3.564-2.282-4.934-6.676-3.064-9.604l2.862-4.552 3.044 1.914-2.554 3.978c-0.422 0.658-0.506 1.502-0.238 2.392 0.294 0.976 0.964 1.832 1.886 2.422 0.708 0.452 1.554 0.71 2.376 0.732 1.162 0.030 2.142-0.402 2.622-1.15l4.898-7.672c0.672-1.048 0.408-2.57-0.65-3.782l-0.666-0.756 2.026-3.168zM13.354 29.78c2.044 0.052 3.662-0.364 4.558-1.766l5.46-8.376c1.29-2.022 0.716-4.812-1.396-6.92l-0.396-0.35-1.074 1.702 0.224 0.264c1.324 1.512 1.618 3.462 0.732 4.85l-4.898 7.672c-0.648 1.012-1.916 1.596-3.39 1.558-0.998-0.026-1.978-0.328-2.832-0.872-1.102-0.702-1.904-1.74-2.258-2.916-0.344-1.138-0.224-2.252 0.338-3.134l2.080-3.252-1.548-0.994-2.382 3.728c-1.608 2.516-0.344 5.848 2.808 7.87 1.238 0.794 2.618 0.902 3.972 0.936 0 0 0 0 0.002 0z" opacity="1" visibility="false"/>
    </symbol>
    <symbol id="icon_editor_picture">
      <path class="path1" d="M13.958 9.852c0 1.744-1.414 3.158-3.158 3.158s-3.158-1.414-3.158-3.158c0-1.744 1.414-3.158 3.158-3.158s3.158 1.414 3.158 3.158z" opacity="1" visibility="false"/>
      <path class="path2" d="M27.078 24l-6.268-13.118-4.952 10.138-3.79-3.9-6.988 6.88z" opacity="1" visibility="false"/>
      <path class="path3" d="M28 4v24h-24v-24h24zM32 0h-32v32h32v-32z" opacity="1" visibility="false"/>
    </symbol>
    <symbol id="icon_editor_list" viewBox="0 0 1024 1024">
      <path class="path1" d="M320 128h576v128h-576v-128z"></path>
      <path class="path2" d="M128 128h128v128h-128v-128z"></path>
      <path class="path3" d="M320 448h576v128h-576v-128z"></path>
      <path class="path4" d="M128 448h128v128h-128v-128z"></path>
      <path class="path5" d="M320 768h384v128h-384v-128z"></path>
      <path class="path6" d="M128 768h128v128h-128v-128z"></path>
    </symbol>
    <symbol id="icon_editor_quote">
      <path class="path1" d="M12.6 15.226c0 1.636-0.552 2.95-1.654 3.94-1.098 0.988-2.47 1.482-4.106 1.482-2.088 0-3.726-0.662-4.91-1.99-1.186-1.324-1.78-3.092-1.78-5.294 0-2.258 0.352-4.176 1.058-5.758 0.706-1.578 1.554-2.892 2.54-3.94 0.988-1.044 2.018-1.862 3.092-2.452 1.070-0.594 2.004-1.030 2.794-1.312l2.712 4.574c-1.13 0.452-2.092 1.172-2.882 2.16-0.788 0.986-1.24 2.046-1.354 3.174 1.13 0 2.16 0.496 3.092 1.482 0.928 0.986 1.398 2.298 1.398 3.934z" opacity="1" visibility="false"/>
      <path class="path2" d="M32 26.578c0 1.636-0.552 2.95-1.654 3.94-1.098 0.988-2.47 1.482-4.106 1.482-2.088 0-3.726-0.662-4.91-1.99-1.186-1.322-1.778-3.092-1.778-5.292 0-2.258 0.352-4.176 1.058-5.758 0.706-1.578 1.554-2.892 2.54-3.94 0.988-1.044 2.018-1.862 3.092-2.452 1.070-0.594 2.006-1.030 2.794-1.312l2.712 4.574c-1.13 0.452-2.092 1.172-2.882 2.16-0.788 0.986-1.24 2.046-1.354 3.174 1.13 0 2.16 0.496 3.092 1.482s1.396 2.296 1.396 3.932z" opacity="1" visibility="false"/>
    </symbol>
    <symbol id="icon_social_facebook">
      <path class="path1" d="M10.786 32v-14.596h4.9l0.733-5.688h-5.633v-3.632c0-1.648 0.457-2.769 2.82-2.769l3.012-0.002v-5.088c-0.521-0.069-2.309-0.225-4.39-0.225-4.343 0-7.316 2.65-7.316 7.52v4.196h-4.912v5.688h4.912v14.596h5.874z"/>
    </symbol>
    <symbol id="icon_social_twitter">
      <path class="path1" d="M39.374 3.787c-1.448 0.643-3.005 1.077-4.64 1.272 1.668-0.999 2.949-2.583 3.552-4.468-1.562 0.926-3.29 1.597-5.129 1.96-1.473-1.569-3.572-2.551-5.896-2.551-4.46 0-8.078 3.618-8.078 8.078 0 0.633 0.071 1.249 0.209 1.842-6.713-0.338-12.665-3.552-16.651-8.441-0.696 1.193-1.095 2.581-1.095 4.062 0 2.803 1.425 5.275 3.593 6.723-1.325-0.043-2.571-0.406-3.658-1.012 0 0.033 0 0.068 0 0.101 0 3.913 2.785 7.18 6.481 7.922-0.679 0.184-1.393 0.283-2.129 0.283-0.52 0-1.027-0.050-1.519-0.144 1.027 3.209 4.011 5.545 7.546 5.611-2.765 2.167-6.247 3.459-10.033 3.459-0.651 0-1.294-0.038-1.927-0.114 3.575 2.291 7.821 3.63 12.382 3.63 14.86 0 22.983-12.309 22.983-22.983 0-0.351-0.008-0.699-0.023-1.044 1.577-1.143 2.947-2.566 4.032-4.185z"/>
    </symbol>
    <symbol id="icon_social_vk">
      <path class="path1" d="M27.451 31.87h3.353c0 0 1.014-0.112 1.529-0.67 0.477-0.512 0.459-1.473 0.459-1.473s-0.067-4.5 2.024-5.163c2.059-0.652 4.703 4.349 7.502 6.271 2.118 1.456 3.728 1.136 3.728 1.136l7.491-0.105c0 0 3.918-0.242 2.059-3.321-0.151-0.253-1.084-2.28-5.569-6.446-4.696-4.36-4.068-3.655 1.589-11.195 3.444-4.594 4.822-7.397 4.391-8.596-0.41-1.143-2.946-0.842-2.946-0.842l-8.435 0.053c0 0-0.624-0.084-1.091 0.193-0.452 0.27-0.744 0.905-0.744 0.905s-1.336 3.553-3.114 6.576c-3.756 6.376-5.257 6.716-5.871 6.32-1.427-0.922-1.070-3.707-1.070-5.685 0-6.18 0.936-8.758-1.827-9.424-0.915-0.221-1.592-0.368-3.939-0.393-3.009-0.032-5.555 0.011-7 0.715-0.961 0.47-1.701 1.519-1.249 1.578 0.558 0.074 1.82 0.34 2.49 1.252 0.866 1.175 0.835 3.816 0.835 3.816s0.498 7.274-1.161 8.179c-1.136 0.621-2.697-0.645-6.046-6.432-1.715-2.964-3.009-6.239-3.009-6.239s-0.249-0.614-0.694-0.94c-0.54-0.396-1.294-0.523-1.294-0.523l-8.014 0.053c0 0-1.203 0.035-1.645 0.558-0.393 0.466-0.032 1.427-0.032 1.427s6.274 14.681 13.38 22.078c6.523 6.783 13.92 6.338 13.92 6.338v0z"/>
    </symbol>
    <symbol id="icon_code" viewBox="0 0 32 32">
      <path d="M19.952 4.319l-1.084-0.297c-0.14-0.047-0.277-0.032-0.411 0.044s-0.225 0.189-0.271 0.341l-6.523 22.575c-0.047 0.152-0.032 0.295 0.044 0.428s0.189 0.224 0.341 0.271l1.084 0.297c0.14 0.047 0.277 0.032 0.411-0.044s0.225-0.189 0.271-0.341l6.523-22.576c0.047-0.152 0.032-0.294-0.044-0.429s-0.189-0.224-0.341-0.271z"></path>
      <path d="M10.177 8.726c0-0.152-0.058-0.286-0.175-0.402l-0.874-0.874c-0.117-0.117-0.251-0.175-0.402-0.175s-0.286 0.059-0.402 0.175l-8.149 8.149c-0.117 0.117-0.175 0.251-0.175 0.402s0.058 0.286 0.175 0.402l8.149 8.149c0.117 0.117 0.25 0.175 0.402 0.175s0.286-0.058 0.402-0.175l0.874-0.874c0.117-0.116 0.175-0.251 0.175-0.402s-0.058-0.285-0.175-0.402l-6.872-6.873 6.872-6.872c0.117-0.117 0.175-0.251 0.175-0.402z"></path>
      <path d="M31.825 15.598l-8.149-8.149c-0.116-0.117-0.251-0.175-0.402-0.175s-0.285 0.059-0.402 0.175l-0.874 0.874c-0.116 0.117-0.175 0.251-0.175 0.402s0.058 0.286 0.175 0.402l6.872 6.872-6.872 6.873c-0.116 0.116-0.175 0.251-0.175 0.402s0.058 0.286 0.175 0.402l0.874 0.874c0.117 0.117 0.251 0.175 0.402 0.175s0.285-0.058 0.402-0.175l8.149-8.149c0.117-0.116 0.175-0.251 0.175-0.402s-0.058-0.286-0.175-0.402z"></path>
    </symbol>
    <symbol id="icon_editor_code" viewBox="0 0 32 32">
      <path d="M19.952 4.319l-1.084-0.297c-0.14-0.047-0.277-0.032-0.411 0.044s-0.225 0.189-0.271 0.341l-6.523 22.575c-0.047 0.152-0.032 0.295 0.044 0.428s0.189 0.224 0.341 0.271l1.084 0.297c0.14 0.047 0.277 0.032 0.411-0.044s0.225-0.189 0.271-0.341l6.523-22.576c0.047-0.152 0.032-0.294-0.044-0.429s-0.189-0.224-0.341-0.271z"></path>
      <path d="M10.177 8.726c0-0.152-0.058-0.286-0.175-0.402l-0.874-0.874c-0.117-0.117-0.251-0.175-0.402-0.175s-0.286 0.059-0.402 0.175l-8.149 8.149c-0.117 0.117-0.175 0.251-0.175 0.402s0.058 0.286 0.175 0.402l8.149 8.149c0.117 0.117 0.25 0.175 0.402 0.175s0.286-0.058 0.402-0.175l0.874-0.874c0.117-0.116 0.175-0.251 0.175-0.402s-0.058-0.285-0.175-0.402l-6.872-6.873 6.872-6.872c0.117-0.117 0.175-0.251 0.175-0.402z"></path>
      <path d="M31.825 15.598l-8.149-8.149c-0.116-0.117-0.251-0.175-0.402-0.175s-0.285 0.059-0.402 0.175l-0.874 0.874c-0.116 0.117-0.175 0.251-0.175 0.402s0.058 0.286 0.175 0.402l6.872 6.872-6.872 6.873c-0.116 0.116-0.175 0.251-0.175 0.402s0.058 0.286 0.175 0.402l0.874 0.874c0.117 0.117 0.251 0.175 0.402 0.175s0.285-0.058 0.402-0.175l8.149-8.149c0.117-0.116 0.175-0.251 0.175-0.402s-0.058-0.286-0.175-0.402z"></path>
    </symbol>
    <symbol id="external_link" viewBox="0 0 11 11">
      <path fill-rule="evenodd" clip-rule="evenodd" d="M7.5 0C7.22386 0 7 0.223858 7 0.5C7 0.776142 7.22386 1 7.5 1H9.29289L5.14645 5.14645C4.95118 5.34171 4.95118 5.65829 5.14645 5.85355C5.34171 6.04882 5.65829 6.04882 5.85355 5.85355L10 1.70711V3.5C10 3.77614 10.2239 4 10.5 4C10.7761 4 11 3.77614 11 3.5V0.5C11 0.223858 10.7761 0 10.5 0H7.5ZM0.5 1C0.223858 1 0 1.22386 0 1.5V10.5C0 10.7761 0.223858 11 0.5 11H9.5C9.77614 11 10 10.7761 10 10.5V6C10 5.72386 9.77614 5.5 9.5 5.5C9.22386 5.5 9 5.72386 9 6V10H1V2H5C5.27614 2 5.5 1.77614 5.5 1.5C5.5 1.22386 5.27614 1 5 1H0.5Z" />
    </symbol>
  </defs>
</svg>
